<svg xmlns="http://www.w3.org/2000/svg" xmlns:svg="http://www.w3.org/2000/svg" xmlns:xlink="http://www.w3.org/1999/xlink" version="1.0" height="1309.9999999999995pt" width="357.5pt" viewBox="-282.5 -452.99999999999943 365.5 1315.9999999999995" ><defs><style type="text/css">
            @font-face {
                font-family: 'lt_regular';
                src: url('https://app.creately.com/diagram/assets/fonts/lato/lt-regular-webfont.woff2') format('woff2'),
                    url('https://app.creately.com/diagram/assets/fonts/lato/lt-regular-webfont.woff') format('woff');
                font-weight: normal;
                font-style: normal;
            }
            @font-face {
                font-family: 'noto_regular';
                src: url('https://app.creately.com/diagram/assets/fonts/noto/noto-regular.woff') format('woff'),
                     url('https://app.creately.com/diagram/assets/fonts/noto/noto-regular.woff2') format('woff2');
                font-weight: normal;
                font-style: normal;
            }
        p {
            margin: 0;
        }
        </style></defs><defs><style>
            span{ display: inline-block; }
        </style></defs><g id="Rx0uokXbuGE"><g transform="translate(-267.5 -449.99999999999943)"><path d="M 20,40 L 20,40 L 20,40 A 20 20 0 0 1 0 20.000000000000004 L 0,20 L 0,20.000000000000004 A 20 20 0 0 1 20 0 L 80,0 L 80,0 L 80,0 A 20 20 0 0 1 100 20 L 100,20 L 100,20 A 20 20 0 0 1 80 40 L 20,40 Z" fill="rgb(208,94,86)" stroke="#f77474" stroke-width="2" stroke-linecap="round" stroke-linejoin="round"/></g><g transform="translate(-231.635, -439.1999999999994) rotate(0, 14.135, 9.2)" width="28.27" height="18.4"><text text-decoration="none" x="0.1349999999999998" fill="#ffffff" font-size="10pt" font-family="lt_regular"  y="15">Start</text><text text-decoration="none" x="28.134999999999998" fill="#4b4b4b" font-size="10pt" font-family="noto_regular"  y="15"></text></g></g><g id="jLqzerf0pYf"><g transform="translate(-277.5 -339.99999999999943)"><rect x="0" y="0" width="120" height="60" fill="rgb(68,141,122)" stroke="#24afaf" stroke-width="2" stroke-linecap="round" stroke-linejoin="round"/></g><g transform="translate(-231.23, -319.1999999999994) rotate(0, 13.73, 9.2)" width="27.46" height="18.4"><text text-decoration="none" x="0" fill="#ffffff" font-size="10pt" font-family="lt_regular"  y="15">User</text><text text-decoration="none" x="28" fill="#4b4b4b" font-size="10pt" font-family="noto_regular"  y="15"></text></g></g><g id="Bz2eR5HD7Da"><g><path d="M -217.5,-409.99999999999943 L -217.5,-339.99999999999943" fill="none" stroke="#7E7E7E" stroke-width="2" stroke-linecap="round" stroke-linejoin="round"/><path d="M -217.5,-339.99999999999943 L -211.75,-348.6956521739125 L -223.25,-348.6956521739125 Z" fill="rgb(126,126,126)" stroke="#7E7E7E" stroke-width="2" stroke-linecap="round" stroke-linejoin="round"/></g></g><g id="4QIHymreMkI"><g transform="translate(-277.5 -229.99999999999943)"><path d="M 60,0 L 0,40 L 60,80 L 120,40 L 60,0 Z" fill="rgb(216,160,39)" stroke="#4b4b4b" stroke-width="2" stroke-linecap="round" stroke-linejoin="round"/></g><g transform="translate(-233.48, -199.19999999999942) rotate(0, 15.98, 9.2)" width="31.96" height="18.4"><text text-decoration="none" x="0.4800000000000004" fill="#ffffff" font-size="10pt" font-family="lt_regular"  y="15">Login</text><text text-decoration="none" x="31.48" fill="#4b4b4b" font-size="10pt" font-family="noto_regular"  y="15"></text></g></g><g id="cgMEVaszY7X"><g><path d="M -217.5,-279.99999999999943 L -217.5,-229.99999999999943" fill="none" stroke="#7E7E7E" stroke-width="2" stroke-linecap="round" stroke-linejoin="round"/><path d="M -217.5,-229.99999999999943 L -211.75,-238.69565217391246 L -223.25,-238.69565217391246 Z" fill="rgb(126,126,126)" stroke="#7E7E7E" stroke-width="2" stroke-linecap="round" stroke-linejoin="round"/></g></g><g id="bCoIziIPEim"><mask id="2b707" x="-231" y="-164" width="85" height="148" maskUnits="userSpaceOnUse"><rect x="-231" y="-164" width="85" height="148" fill="white" /><rect x="-231.09979062682197" y="-73.45024956272272" width="27.46" height="24.4" fill="black" /></mask><g mask="url(#2b707)"><path d="M -217,-150 L -217.45833369501844,-39.999913195574706 Q -217.5,-30 -207.5,-30 L -160,-30" fill="none" stroke="#7E7E7E" stroke-width="2" stroke-linecap="round" stroke-linejoin="round"/><path d="M -160,-30 L -168.69565217391303,-35.75 L -168.69565217391303,-24.25 Z" fill="rgb(126,126,126)" stroke="#7E7E7E" stroke-width="2" stroke-linecap="round" stroke-linejoin="round"/></g><g transform="translate(-228.09979062682197, -70.45024956272272)" width="21.46" height="18.4"><text text-decoration="none" x="0" fill="#4b4b4b" font-size="10pt" font-family="noto_regular"  y="15">Yes</text><text text-decoration="none" x="22" fill="#4b4b4b" font-size="10pt" font-family="noto_regular"  y="15"></text></g></g><g id="fVLDke4em5h"><g transform="translate(-87.5 -219.99999999999943)"><rect x="0" y="0" width="120" height="60" fill="rgb(68,141,122)" stroke="#24afaf" stroke-width="2" stroke-linecap="round" stroke-linejoin="round"/></g><g transform="translate(-51.47, -199.19999999999942) rotate(0, 23.97, 9.2)" width="47.94" height="18.4"><text text-decoration="none" x="0" fill="#ffffff" font-size="10pt" font-family="lt_regular"  y="15">Register</text><text text-decoration="none" x="48" fill="#4b4b4b" font-size="10pt" font-family="noto_regular"  y="15"></text></g></g><g id="uuz5kOSAagE"><mask id="2a99b" x="-171.5" y="-203.99999999999943" width="98" height="28" maskUnits="userSpaceOnUse"><rect x="-171.5" y="-203.99999999999943" width="98" height="28" fill="white" /><rect x="-134.605" y="-202.19999999999942" width="24.21" height="24.4" fill="black" /></mask><g mask="url(#2a99b)"><path d="M -157.5,-189.99999999999943 L -87.5,-189.99999999999943" fill="none" stroke="#7E7E7E" stroke-width="2" stroke-linecap="round" stroke-linejoin="round"/><path d="M -87.5,-189.99999999999943 L -96.19565217391305,-195.74999999999943 L -96.19565217391305,-184.24999999999943 Z" fill="rgb(126,126,126)" stroke="#7E7E7E" stroke-width="2" stroke-linecap="round" stroke-linejoin="round"/></g><g transform="translate(-131.605, -199.19999999999942)" width="18.21" height="18.4"><text text-decoration="none" x="1.1050000000000004" fill="#4b4b4b" font-size="10pt" font-family="noto_regular"  y="15">No</text><text text-decoration="none" x="17.105" fill="#4b4b4b" font-size="10pt" font-family="noto_regular"  y="15"></text></g></g><g id="jltM8ivaZab"><g><path d="M -217,-262 L -27.5,-262.0283950617278 L -27,-220" fill="none" stroke="#7E7E7E" stroke-width="2" stroke-linecap="round" stroke-linejoin="round"/><path d="M -217,-262 L -208.30434782608697,-256.25 L -208.30434782608697,-267.75 Z" fill="rgb(126,126,126)" stroke="#7E7E7E" stroke-width="2" stroke-linecap="round" stroke-linejoin="round"/><path d="M -27,-220 L -21.25,-228.69565217391303 L -32.75,-228.69565217391303 Z" fill="rgb(126,126,126)" stroke="#7E7E7E" stroke-width="2" stroke-linecap="round" stroke-linejoin="round"/></g></g><g id="szvxyBuPU1p"><g transform="translate(-160 -60)"><rect x="0" y="0" width="140" height="60" fill="rgb(95,178,212)" stroke="#0979A7" stroke-width="2" stroke-linecap="round" stroke-linejoin="round"/></g><g transform="translate(-137.61, -39.2) rotate(0, 47.61, 9.2)" width="95.22" height="18.4"><text text-decoration="none" x="4.109999999999999" fill="#ffffff" font-size="10pt" font-family="noto_regular"  y="15">Search&#160;</text><text text-decoration="none" x="47.11" fill="#ffffff" font-size="10pt" font-family="noto_regular"  y="15">Product</text><text text-decoration="none" x="91.11" fill="#4b4b4b" font-size="10pt" font-family="noto_regular"  y="15"></text></g></g><g id="yRwIJngoKf7"><g transform="translate(-160 30)"><rect x="0" y="0" width="140" height="60" fill="rgb(95,178,212)" stroke="#0979A7" stroke-width="2" stroke-linecap="round" stroke-linejoin="round"/></g><g transform="translate(-131.095, 50.8) rotate(0, 41.095, 9.2)" width="82.19" height="18.4"><text text-decoration="none" x="3.594999999999999" fill="#ffffff" font-size="10pt" font-family="noto_regular"  y="15">View&#160;</text><text text-decoration="none" x="34.595" fill="#ffffff" font-size="10pt" font-family="noto_regular"  y="15">Product</text><text text-decoration="none" x="78.595" fill="#4b4b4b" font-size="10pt" font-family="noto_regular"  y="15"></text></g></g><g id="j05qSClXGrr"><g transform="translate(-160 120)"><rect x="0" y="0" width="140" height="60" fill="rgb(95,178,212)" stroke="#0979A7" stroke-width="2" stroke-linecap="round" stroke-linejoin="round"/></g><g transform="translate(-131.085, 131.6) rotate(0, 41.085, 18.4)" width="82.17" height="36.8"><text text-decoration="none" x="4.585000000000001" fill="#ffffff" font-size="10pt" font-family="noto_regular"  y="12">Buy&#160;</text><text text-decoration="none" x="28.585" fill="#ffffff" font-size="10pt" font-family="noto_regular"  y="12">Product/</text><text text-decoration="none" x="77.58500000000001" fill="#ffffff" font-size="10pt" font-family="noto_regular"  y="12"></text><text text-decoration="none" x="10.085" fill="#ffffff" font-size="10pt" font-family="noto_regular"  y="31">Add&#160;</text><text text-decoration="none" x="35.085" fill="#ffffff" font-size="10pt" font-family="noto_regular"  y="31">to&#160;</text><text text-decoration="none" x="49.085" fill="#ffffff" font-size="10pt" font-family="noto_regular"  y="31">Cart</text><text text-decoration="none" x="72.08500000000001" fill="#4b4b4b" font-size="10pt" font-family="noto_regular"  y="31"></text></g></g><g id="ei4cGc61XlQ"><g><path d="M -217,-150 L -217.4763712656632,51.60620075540011 Q -217.5,61.606172839506826 -207.50023454725994,61.67466291313901 L -160,62" fill="none" stroke="#7E7E7E" stroke-width="2" stroke-linecap="round" stroke-linejoin="round"/><path d="M -160,62 L -168.69565217391303,56.25 L -168.69565217391303,67.75 Z" fill="rgb(126,126,126)" stroke="#7E7E7E" stroke-width="2" stroke-linecap="round" stroke-linejoin="round"/></g></g><g id="BYeTWSEMOTf"><g><path d="M -217,-150 L -217.48333335648144,140.00001388885994 Q -217.5,150 -207.5,150 L -160,150" fill="none" stroke="#7E7E7E" stroke-width="2" stroke-linecap="round" stroke-linejoin="round"/><path d="M -160,150 L -168.69565217391303,144.25 L -168.69565217391303,155.75 Z" fill="rgb(126,126,126)" stroke="#7E7E7E" stroke-width="2" stroke-linecap="round" stroke-linejoin="round"/></g></g><g id="YmSnUgRtLBP"><g transform="translate(-150 240)"><path d="M 60,0 L 0,40 L 60,80 L 120,40 L 60,0 Z" fill="rgb(216,160,39)" stroke="#4b4b4b" stroke-width="2" stroke-linecap="round" stroke-linejoin="round" stroke-dasharray="0 0"/></g><g transform="translate(-133.95, 270.8) rotate(0, 43.95, 9.2)" width="87.9" height="18.4"><text text-decoration="none" x="0.9500000000000028" fill="#ffffff" font-size="10pt" font-family="lt_regular"  y="15">Make&#160;</text><text text-decoration="none" x="35.95" fill="#ffffff" font-size="10pt" font-family="lt_regular"  y="15">Payment</text><text text-decoration="none" x="86.95" fill="#4b4b4b" font-size="10pt" font-family="noto_regular"  y="15"></text></g></g><g id="Yc4oraDIAAh"><g><path d="M -90,180 L -90,240" fill="none" stroke="#7E7E7E" stroke-width="2" stroke-linecap="round" stroke-linejoin="round"/><path d="M -90,240 L -84.25,231.30434782608697 L -95.75,231.30434782608697 Z" fill="rgb(126,126,126)" stroke="#7E7E7E" stroke-width="2" stroke-linecap="round" stroke-linejoin="round"/></g></g><g id="lkSX1P7VeH4"><g transform="translate(-150 400)"><rect x="0" y="0" width="120" height="60" fill="rgb(131,48,74)" stroke="#530920" stroke-width="2" stroke-linecap="round" stroke-linejoin="round" stroke-dasharray="0 0"/></g><g transform="translate(-134.38, 420.8) rotate(0, 44.38, 9.2)" width="88.76" height="18.4"><text text-decoration="none" x="3.8800000000000026" fill="#ffffff" font-size="10pt" font-family="noto_regular"  y="15">Payment&#160;</text><text text-decoration="none" x="56.88" fill="#ffffff" font-size="10pt" font-family="noto_regular"  y="15">Type</text><text text-decoration="none" x="84.88" fill="#4b4b4b" font-size="10pt" font-family="noto_regular"  y="15"></text></g></g><g id="zjesGNb2RpV"><mask id="22b0f" x="-104" y="306" width="28" height="108" maskUnits="userSpaceOnUse"><rect x="-104" y="306" width="28" height="108" fill="white" /><rect x="-103.73" y="347.8" width="27.46" height="24.4" fill="black" /></mask><g mask="url(#22b0f)"><path d="M -90,320 L -90,400" fill="none" stroke="#7E7E7E" stroke-width="2" stroke-linecap="round" stroke-linejoin="round"/><path d="M -90,400 L -84.25,391.30434782608694 L -95.75,391.30434782608694 Z" fill="rgb(126,126,126)" stroke="#7E7E7E" stroke-width="2" stroke-linecap="round" stroke-linejoin="round"/></g><g transform="translate(-100.73, 350.8)" width="21.46" height="18.4"><text text-decoration="none" x="0" fill="#4b4b4b" font-size="10pt" font-family="noto_regular"  y="15">Yes</text><text text-decoration="none" x="22" fill="#4b4b4b" font-size="10pt" font-family="noto_regular"  y="15"></text></g></g><g id="Lsx9JkD38s6"><mask id="93e68" x="-44" y="136" width="85" height="158" maskUnits="userSpaceOnUse"><rect x="-44" y="136" width="85" height="158" fill="white" /><rect x="14.895" y="207.79921964333292" width="24.21" height="24.4" fill="black" /></mask><g mask="url(#93e68)"><path d="M -30,280 L 17,280 Q 27,280 27,270 L 27,240 L 27,210 Q 27,209 26,200 Q 25.124861283721685,190.8027562210225 25.118520984753992,190.00031213292382 L 25,175 L 25.118520984753992,159.99968786707618 Q 25.197530864197574,150 15.197530864197574,150 L -20,150" fill="none" stroke="#7E7E7E" stroke-width="2" stroke-linecap="round" stroke-linejoin="round"/><path d="M -20,150 L -11.304347826086955,155.75 L -11.304347826086955,144.25 Z" fill="rgb(126,126,126)" stroke="#7E7E7E" stroke-width="2" stroke-linecap="round" stroke-linejoin="round"/></g><g transform="translate(17.895, 210.79921964333292)" width="18.21" height="18.4"><text text-decoration="none" x="1.1050000000000004" fill="#4b4b4b" font-size="10pt" font-family="noto_regular"  y="15">No</text><text text-decoration="none" x="17.105" fill="#4b4b4b" font-size="10pt" font-family="noto_regular"  y="15"></text></g></g><g id="pwHrereUlIz"><g transform="translate(-190 510)"><rect x="0" y="0" width="120" height="60" fill="rgb(131,48,74)" stroke="#530920" stroke-width="2" stroke-linecap="round" stroke-linejoin="round" stroke-dasharray="0 0"/></g><g transform="translate(-157.685, 521.6) rotate(0, 27.685, 18.4)" width="55.37" height="36.8"><text text-decoration="none" x="9.684999999999999" fill="#ffffff" font-size="10pt" font-family="noto_regular"  y="12">Online&#160;</text><text text-decoration="none" x="2.6849999999999987" fill="#ffffff" font-size="10pt" font-family="noto_regular"  y="31">Payment</text><text text-decoration="none" x="52.685" fill="#4b4b4b" font-size="10pt" font-family="noto_regular"  y="31"></text></g></g><g id="Rznr1bbdB7F"><g><path d="M -90,460 L -90,475 Q -90,485 -100,485 L -110,485 L -120,485 Q -130,485 -130,495 L -130,510" fill="none" stroke="#7E7E7E" stroke-width="2" stroke-linecap="round" stroke-linejoin="round"/><path d="M -130,510 L -124.25,501.30434782608694 L -135.75,501.30434782608694 Z" fill="rgb(126,126,126)" stroke="#7E7E7E" stroke-width="2" stroke-linecap="round" stroke-linejoin="round"/></g></g><g id="Yvew5lfhMoM"><g transform="translate(-40 510)"><rect x="0" y="0" width="120" height="60" fill="rgb(131,48,74)" stroke="#530920" stroke-width="2" stroke-linecap="round" stroke-linejoin="round" stroke-dasharray="0 0"/></g><g transform="translate(-28.840000000000003, 530.8) rotate(0, 48.84, 9.2)" width="97.68" height="18.4"><text text-decoration="none" x="4.840000000000003" fill="#ffffff" font-size="10pt" font-family="noto_regular"  y="15">Cash&#160;</text><text text-decoration="none" x="36.84" fill="#ffffff" font-size="10pt" font-family="noto_regular"  y="15">on&#160;</text><text text-decoration="none" x="53.84" fill="#ffffff" font-size="10pt" font-family="noto_regular"  y="15">Deliver</text><text text-decoration="none" x="92.84" fill="#4b4b4b" font-size="10pt" font-family="noto_regular"  y="15"></text></g></g><g id="p609aqStaUK"><g><path d="M -90,460 L -90,475 Q -90,485 -80,485 L -35,485 L 10,485 Q 20,485 20,495 L 20,510" fill="none" stroke="#7E7E7E" stroke-width="2" stroke-linecap="round" stroke-linejoin="round"/><path d="M 20,510 L 25.75,501.30434782608694 L 14.25,501.30434782608694 Z" fill="rgb(126,126,126)" stroke="#7E7E7E" stroke-width="2" stroke-linecap="round" stroke-linejoin="round"/></g></g><g id="LshuugcLbd9"><g transform="translate(-150 640)"><rect x="0" y="0" width="120" height="60" fill="rgb(68,141,122)" stroke="#24afaf" stroke-width="2" stroke-linecap="round" stroke-linejoin="round" stroke-dasharray="0 0"/></g><g transform="translate(-130.855, 660.8) rotate(0, 40.855, 9.2)" width="81.71" height="18.4"><text text-decoration="none" x="4.354999999999997" fill="#ffffff" font-size="10pt" font-family="noto_regular"  y="15">Order&#160;</text><text text-decoration="none" x="38.355" fill="#ffffff" font-size="10pt" font-family="noto_regular"  y="15">Placed</text><text text-decoration="none" x="77.35499999999999" fill="#4b4b4b" font-size="10pt" font-family="noto_regular"  y="15"></text></g></g><g id="fXd9bBBqApH"><g><path d="M -130,570 L -130,595 Q -130,605 -120,605 L -110,605 L -100,605 Q -90,605 -90,615 L -90,640" fill="none" stroke="#7E7E7E" stroke-width="2" stroke-linecap="round" stroke-linejoin="round"/><path d="M -90,640 L -84.25,631.304347826087 L -95.75,631.304347826087 Z" fill="rgb(126,126,126)" stroke="#7E7E7E" stroke-width="2" stroke-linecap="round" stroke-linejoin="round"/></g></g><g id="ZpslCJDv1Nj"><g><path d="M 20,570 L 20.000000000000004,595 Q 20.000000000000004,605 10.000000000000004,605 L -35,605 L -80,605 Q -90,605 -90,615 L -90,640" fill="none" stroke="#7E7E7E" stroke-width="2" stroke-linecap="round" stroke-linejoin="round"/><path d="M -90,640 L -84.25,631.304347826087 L -95.75,631.304347826087 Z" fill="rgb(126,126,126)" stroke="#7E7E7E" stroke-width="2" stroke-linecap="round" stroke-linejoin="round"/></g></g><g id="1mipzZY3dKf"><g><path d="M -217,-150 L -217.49390244015794,660.000001859012 Q -217.5,670 -207.5,670 L -150,670" fill="none" stroke="#7E7E7E" stroke-width="2" stroke-linecap="round" stroke-linejoin="round"/><path d="M -150,670 L -158.69565217391303,664.25 L -158.69565217391303,675.75 Z" fill="rgb(126,126,126)" stroke="#7E7E7E" stroke-width="2" stroke-linecap="round" stroke-linejoin="round"/></g></g><g id="IQScjMxU89a"><g transform="translate(-160 730)"><rect x="0" y="0" width="140" height="60" fill="rgb(95,178,212)" stroke="#0979A7" stroke-width="2" stroke-linecap="round" stroke-linejoin="round"/></g><g transform="translate(-117.065, 750.8) rotate(0, 27.065, 9.2)" width="54.13" height="18.4"><text text-decoration="none" x="3.0650000000000013" fill="#ffffff" font-size="10pt" font-family="noto_regular"  y="15">Sign&#160;</text><text text-decoration="none" x="31.065" fill="#ffffff" font-size="10pt" font-family="noto_regular"  y="15">Out</text><text text-decoration="none" x="51.065" fill="#4b4b4b" font-size="10pt" font-family="noto_regular"  y="15"></text></g></g><g id="El6eCqpi3W3"><g transform="translate(-140 820)"><path d="M 20,40 L 20,40 L 20,40 A 20 20 0 0 1 0 20.000000000000004 L 0,20 L 0,20.000000000000004 A 20 20 0 0 1 20 0 L 80,0 L 80,0 L 80,0 A 20 20 0 0 1 100 20 L 100,20 L 100,20 A 20 20 0 0 1 80 40 L 20,40 Z" fill="rgb(208,94,86)" stroke="#f77474" stroke-width="2" stroke-linecap="round" stroke-linejoin="round"/></g><g transform="translate(-101.935, 830.8) rotate(0, 11.935, 9.2)" width="23.87" height="18.4"><text text-decoration="none" x="1.4350000000000005" fill="#ffffff" font-size="10pt" font-family="noto_regular"  y="15">End</text><text text-decoration="none" x="22.435000000000002" fill="#4b4b4b" font-size="10pt" font-family="noto_regular"  y="15"></text></g></g><g id="GmRQQqd4cGm"><g><path d="M -90,700 L -90,730" fill="none" stroke="#7E7E7E" stroke-width="2" stroke-linecap="round" stroke-linejoin="round"/><path d="M -90,730 L -84.25,721.304347826087 L -95.75,721.304347826087 Z" fill="rgb(126,126,126)" stroke="#7E7E7E" stroke-width="2" stroke-linecap="round" stroke-linejoin="round"/></g></g><g id="BDcP3nQcfdb"><g><path d="M -217,-150 L -217.49448271831275,746.2432427428085 Q -217.5,756.2432412207886 -207.50008947523236,756.2009387782873 L -160,756" fill="none" stroke="#7E7E7E" stroke-width="2" stroke-linecap="round" stroke-linejoin="round"/><path d="M -160,756 L -168.69565217391303,750.25 L -168.69565217391303,761.75 Z" fill="rgb(126,126,126)" stroke="#7E7E7E" stroke-width="2" stroke-linecap="round" stroke-linejoin="round"/></g></g><g id="kNpL4eVu9NQ"><g><path d="M -90,790 L -90,820" fill="none" stroke="#7E7E7E" stroke-width="2" stroke-linecap="round" stroke-linejoin="round"/><path d="M -90,820 L -84.25,811.304347826087 L -95.75,811.304347826087 Z" fill="rgb(126,126,126)" stroke="#7E7E7E" stroke-width="2" stroke-linecap="round" stroke-linejoin="round"/></g></g></svg>